<svg xmlns="http://www.w3.org/2000/svg" viewBox="80 2 160 176" role="img" aria-label="QNAP TS-433 (torre, 4 baias)">
<title>QNAP TS-433 (torre, 4 baias)</title>
<ellipse cx="160.0" cy="172" rx="134.4" ry="6" fill="#000" opacity="0.12"/>
<rect x="90" y="8" width="140" height="160" rx="10" fill="#1b1f25"/><rect x="96" y="14" width="128" height="148" rx="6" fill="#23282f"/><rect x="104" y="22" width="112" height="16" rx="3" fill="#15181d"/><text x="110" y="34" font-family="Arial,sans-serif" font-size="9" font-weight="700" fill="#cfd6df">QNAP</text><circle cx="180" cy="30" r="2.2" fill="#39d17a"/><circle cx="190" cy="30" r="2.2" fill="#3fa0ff"/><circle cx="200" cy="30" r="2.2" fill="#39d17a"/><circle cx="210" cy="30" r="2.2" fill="#f0b429"/><rect x="104" y="46" width="112" height="24" rx="2" fill="#2b313a" stroke="#4a525e"/><rect x="194" y="55.0" width="14" height="6" rx="1.5" fill="#5b6574"/><rect x="114" y="50" width="3" height="16" rx="1" fill="#20252c"/><rect x="121" y="50" width="3" height="16" rx="1" fill="#20252c"/><rect x="128" y="50" width="3" height="16" rx="1" fill="#20252c"/><rect x="135" y="50" width="3" height="16" rx="1" fill="#20252c"/><rect x="142" y="50" width="3" height="16" rx="1" fill="#20252c"/><rect x="149" y="50" width="3" height="16" rx="1" fill="#20252c"/><rect x="156" y="50" width="3" height="16" rx="1" fill="#20252c"/><rect x="163" y="50" width="3" height="16" rx="1" fill="#20252c"/><circle cx="184" cy="58.0" r="2.2" fill="#39d17a"/><rect x="104" y="74" width="112" height="24" rx="2" fill="#2b313a" stroke="#4a525e"/><rect x="194" y="83.0" width="14" height="6" rx="1.5" fill="#5b6574"/><rect x="114" y="78" width="3" height="16" rx="1" fill="#20252c"/><rect x="121" y="78" width="3" height="16" rx="1" fill="#20252c"/><rect x="128" y="78" width="3" height="16" rx="1" fill="#20252c"/><rect x="135" y="78" width="3" height="16" rx="1" fill="#20252c"/><rect x="142" y="78" width="3" height="16" rx="1" fill="#20252c"/><rect x="149" y="78" width="3" height="16" rx="1" fill="#20252c"/><rect x="156" y="78" width="3" height="16" rx="1" fill="#20252c"/><rect x="163" y="78" width="3" height="16" rx="1" fill="#20252c"/><circle cx="184" cy="86.0" r="2.2" fill="#39d17a"/><rect x="104" y="102" width="112" height="24" rx="2" fill="#2b313a" stroke="#4a525e"/><rect x="194" y="111.0" width="14" height="6" rx="1.5" fill="#5b6574"/><rect x="114" y="106" width="3" height="16" rx="1" fill="#20252c"/><rect x="121" y="106" width="3" height="16" rx="1" fill="#20252c"/><rect x="128" y="106" width="3" height="16" rx="1" fill="#20252c"/><rect x="135" y="106" width="3" height="16" rx="1" fill="#20252c"/><rect x="142" y="106" width="3" height="16" rx="1" fill="#20252c"/><rect x="149" y="106" width="3" height="16" rx="1" fill="#20252c"/><rect x="156" y="106" width="3" height="16" rx="1" fill="#20252c"/><rect x="163" y="106" width="3" height="16" rx="1" fill="#20252c"/><circle cx="184" cy="114.0" r="2.2" fill="#39d17a"/><rect x="104" y="130" width="112" height="24" rx="2" fill="#2b313a" stroke="#4a525e"/><rect x="194" y="139.0" width="14" height="6" rx="1.5" fill="#5b6574"/><rect x="114" y="134" width="3" height="16" rx="1" fill="#20252c"/><rect x="121" y="134" width="3" height="16" rx="1" fill="#20252c"/><rect x="128" y="134" width="3" height="16" rx="1" fill="#20252c"/><rect x="135" y="134" width="3" height="16" rx="1" fill="#20252c"/><rect x="142" y="134" width="3" height="16" rx="1" fill="#20252c"/><rect x="149" y="134" width="3" height="16" rx="1" fill="#20252c"/><rect x="156" y="134" width="3" height="16" rx="1" fill="#20252c"/><rect x="163" y="134" width="3" height="16" rx="1" fill="#20252c"/><circle cx="184" cy="142.0" r="2.2" fill="#39d17a"/>
</svg>
